<svg width="482" height="217" viewBox="0 0 482 217" fill="none" xmlns="http://www.w3.org/2000/svg">
<path d="M418.164 188.109V196.654C418.392 196.882 418.766 196.996 419.287 196.996C419.808 196.996 420.182 196.817 420.41 196.459C420.638 196.101 420.752 195.482 420.752 194.604V187.621C420.752 184.496 420.622 182.429 420.361 181.42C420.101 180.378 419.613 179.857 418.896 179.857C418.441 179.857 418.05 180.02 417.725 180.346C418.018 183.568 418.164 186.156 418.164 188.109ZM399.902 209.74C394.564 204.597 391.895 197.631 391.895 188.842C391.895 180.02 394.401 173.07 399.414 167.992C404.46 162.882 411.068 160.326 419.238 160.326C427.409 160.326 434.017 162.979 439.062 168.285C444.076 173.591 446.582 180.508 446.582 189.037C446.582 197.533 444.157 204.288 439.307 209.301C434.489 214.314 427.93 216.82 419.629 216.82C411.328 216.82 404.753 214.46 399.902 209.74Z" fill="#008314"/>
<path d="M387.695 171.361V190.697C387.695 195.548 388.867 198.705 391.211 200.17C391.243 200.333 391.26 200.642 391.26 201.098V201.977C391.26 206.762 389.958 210.359 387.354 212.768C384.945 215.046 381.722 216.186 377.686 216.186C373.682 216.186 370.378 215.046 367.773 212.768C364.486 209.87 362.842 205.639 362.842 200.072V168.334C363.428 167.911 364.062 167.569 364.746 167.309C365.43 167.048 366.146 166.723 366.895 166.332C365.495 165.616 364.225 164.379 363.086 162.621C361.947 160.831 361.377 158.747 361.377 156.371C361.377 152.27 362.728 148.917 365.43 146.312C368.132 143.708 371.436 142.406 375.342 142.406C379.281 142.406 382.568 143.741 385.205 146.41C387.874 149.047 389.209 152.367 389.209 156.371C389.209 159.594 388.2 162.426 386.182 164.867C384.163 167.276 381.706 168.79 378.809 169.408C378.809 170.645 379.281 171.264 380.225 171.264C381.885 171.264 383.577 170.613 385.303 169.311C386.605 170.32 387.402 171.003 387.695 171.361Z" fill="#008314"/>
<path d="M356.836 156.371V190.697C356.836 195.548 358.008 198.705 360.352 200.17C360.384 200.333 360.4 200.642 360.4 201.098V201.977C360.4 206.632 359.212 210.163 356.836 212.572C354.492 214.981 351.156 216.186 346.826 216.186C342.497 216.186 339.062 214.981 336.523 212.572C333.496 209.708 331.982 205.378 331.982 199.584V148.852C335.4 146.768 339.307 145.727 343.701 145.727C348.128 145.727 351.416 146.671 353.564 148.559C355.745 150.414 356.836 153.018 356.836 156.371Z" fill="#008314"/>
<path d="M300.781 188.109V196.654C301.009 196.882 301.383 196.996 301.904 196.996C302.425 196.996 302.799 196.817 303.027 196.459C303.255 196.101 303.369 195.482 303.369 194.604V187.621C303.369 184.496 303.239 182.429 302.979 181.42C302.718 180.378 302.23 179.857 301.514 179.857C301.058 179.857 300.667 180.02 300.342 180.346C300.635 183.568 300.781 186.156 300.781 188.109ZM282.52 209.74C277.181 204.597 274.512 197.631 274.512 188.842C274.512 180.02 277.018 173.07 282.031 167.992C287.077 162.882 293.685 160.326 301.855 160.326C310.026 160.326 316.634 162.979 321.68 168.285C326.693 173.591 329.199 180.508 329.199 189.037C329.199 197.533 326.774 204.288 321.924 209.301C317.106 214.314 310.547 216.82 302.246 216.82C293.945 216.82 287.37 214.46 282.52 209.74Z" fill="#008314"/>
<path d="M251.074 215.941C247.201 215.941 244.108 215.242 241.797 213.842C239.225 212.377 237.939 210.212 237.939 207.348V184.447H239.453C241.081 184.447 241.895 183.91 241.895 182.836C241.895 182.706 241.862 182.51 241.797 182.25H233.691C231.803 179.548 230.859 176.212 230.859 172.24C230.859 168.269 231.803 164.835 233.691 161.938H237.939C238.721 156.534 240.837 152.4 244.287 149.535C247.738 146.671 252.327 145.238 258.057 145.238C262.158 145.238 265.723 145.824 268.75 146.996C271.777 148.168 273.991 149.503 275.391 151C275.716 152.074 275.879 153.376 275.879 154.906V155.834C275.879 159.187 275.391 162.133 274.414 164.672C272.168 165.551 269.027 165.99 264.99 165.99C263.33 165.99 261.507 165.876 259.521 165.648C257.568 165.421 256.12 165.193 255.176 164.965C254.948 165.193 254.834 165.518 254.834 165.941C254.834 166.495 255.615 167.016 257.178 167.504C258.74 167.96 261.263 168.188 264.746 168.188C268.262 168.188 271.143 167.992 273.389 167.602C273.617 168.122 273.828 169.115 274.023 170.58C274.251 172.012 274.365 173.428 274.365 174.828C274.365 177.823 273.812 180.297 272.705 182.25H263.672V212.572C260.124 214.818 255.924 215.941 251.074 215.941Z" fill="#008314"/>
<path d="M166.357 215.941C162.484 215.941 159.391 215.242 157.08 213.842C154.508 212.377 153.223 210.212 153.223 207.348V182.201C151.302 179.499 150.342 176.179 150.342 172.24C150.342 168.269 151.302 164.835 153.223 161.938H160.693C164.535 161.938 167.285 163.174 168.945 165.648C168.132 166.56 167.415 167.715 166.797 169.115C166.178 170.515 165.869 171.524 165.869 172.143C165.869 172.729 166.016 173.168 166.309 173.461C166.634 173.754 167.09 173.9 167.676 173.9C168.815 169.376 170.98 166.055 174.17 163.939C176.807 162.149 180.062 161.254 183.936 161.254C186.735 161.254 189.274 161.807 191.553 162.914C192.952 163.63 194.596 164.835 196.484 166.527C198.145 162.947 199.772 159.057 201.367 154.857C201.758 153.848 202.132 152.904 202.49 152.025C202.848 151.114 203.125 150.398 203.32 149.877C205.729 149.258 208.529 148.949 211.719 148.949C214.941 148.949 218.132 149.291 221.289 149.975V161.938H229.736C231.624 164.802 232.568 168.171 232.568 172.045C232.568 173.803 232.324 175.609 231.836 177.465C231.348 179.32 230.648 180.899 229.736 182.201H222.754V189.574C222.754 193.741 224.495 195.824 227.979 195.824H230.078C230.762 198.298 231.104 200.447 231.104 202.27C231.104 206.762 229.688 210.212 226.855 212.621C224.056 214.997 219.971 216.186 214.6 216.186C209.261 216.186 204.997 214.704 201.807 211.742C198.649 208.747 197.07 204.353 197.07 198.559V180.248C197.07 178.816 196.615 178.1 195.703 178.1C195.345 178.1 194.987 178.23 194.629 178.49C194.629 180.736 194.417 182.689 193.994 184.35C191.195 185.587 187.842 186.205 183.936 186.205C181.982 186.205 180.208 186.075 178.613 185.814C177.051 185.521 175.911 185.261 175.195 185.033C174.935 185.294 174.805 185.668 174.805 186.156C174.805 186.645 175.114 187.019 175.732 187.279C176.383 187.507 177.458 187.768 178.955 188.061V212.572C175.407 214.818 171.208 215.941 166.357 215.941Z" fill="#008314"/>
<path d="M120.898 188.109V196.654C121.126 196.882 121.501 196.996 122.021 196.996C122.542 196.996 122.917 196.817 123.145 196.459C123.372 196.101 123.486 195.482 123.486 194.604V187.621C123.486 184.496 123.356 182.429 123.096 181.42C122.835 180.378 122.347 179.857 121.631 179.857C121.175 179.857 120.785 180.02 120.459 180.346C120.752 183.568 120.898 186.156 120.898 188.109ZM102.637 209.74C97.2982 204.597 94.6289 197.631 94.6289 188.842C94.6289 180.02 97.1354 173.07 102.148 167.992C107.194 162.882 113.802 160.326 121.973 160.326C130.143 160.326 136.751 162.979 141.797 168.285C146.81 173.591 149.316 180.508 149.316 189.037C149.316 197.533 146.891 204.288 142.041 209.301C137.223 214.314 130.664 216.82 122.363 216.82C114.062 216.82 107.487 214.46 102.637 209.74Z" fill="#008314"/>
<path d="M62.9395 182.543C63.0697 182.641 63.444 182.689 64.0625 182.689C64.681 182.689 65.153 182.445 65.4785 181.957C65.804 181.469 65.9668 180.671 65.9668 179.564V175.854C65.9668 174.682 65.8203 173.852 65.5273 173.363C65.2669 172.842 64.8112 172.582 64.1602 172.582C63.5417 172.582 63.1185 172.647 62.8906 172.777C62.9232 172.94 62.9395 173.217 62.9395 173.607V182.543ZM64.1602 204.613V212.084C62.7279 213.288 60.7096 214.281 58.1055 215.062C55.5013 215.811 52.7832 216.186 49.9512 216.186C45.9147 216.186 42.6107 215.404 40.0391 213.842C37.1094 212.051 35.6445 209.464 35.6445 206.078V159.691C35.6445 158.65 36.3444 157.608 37.7441 156.566C39.1764 155.525 41.1458 154.581 43.6523 153.734C49.0234 151.911 55.1595 151 62.0605 151C71.5983 151 79.1992 153.376 84.8633 158.129C90.5273 162.882 93.3594 169.278 93.3594 177.318C93.3594 185.326 90.804 191.56 85.6934 196.02C80.778 200.251 73.9583 202.367 65.2344 202.367C63.2487 202.367 61.1165 202.139 58.8379 201.684C56.5918 201.195 55.0781 200.772 54.2969 200.414C54.0365 200.674 53.9062 201.033 53.9062 201.488C53.9062 203.148 57.3242 204.19 64.1602 204.613Z" fill="#008314"/>
<path d="M455.713 29.2969C455.713 28.125 455.273 27.5391 454.395 27.5391C453.581 27.5391 453.174 28.0273 453.174 29.0039V34.0332C453.434 34.2611 453.825 34.375 454.346 34.375C454.867 34.375 455.225 34.1797 455.42 33.7891C455.615 33.3984 455.713 32.6823 455.713 31.6406V29.2969ZM457.52 49.0723C455.436 49.0723 453.662 48.9258 452.197 48.6328C452.1 48.9258 452.051 49.2025 452.051 49.4629C452.051 50.179 452.555 50.6673 453.564 50.9277C454.606 51.1556 455.924 51.2695 457.52 51.2695C462.598 51.2695 466.927 50.5208 470.508 49.0234C474.023 49.9349 476.758 51.9206 478.711 54.9805C480.306 57.487 481.104 60.4329 481.104 63.8184C481.104 69.8405 478.548 74.528 473.438 77.8809C468.327 81.2337 461.735 82.9102 453.662 82.9102C445.622 82.9102 439.404 81.4779 435.01 78.6133C430.941 76.0091 428.906 72.6237 428.906 68.457C428.906 66.862 429.281 65.332 430.029 63.8672C430.778 62.3698 431.641 61.3444 432.617 60.791C434.245 62.1582 436.637 63.265 439.795 64.1113C442.985 64.9577 446.257 65.3809 449.609 65.3809C452.962 65.3809 455.111 65.2507 456.055 64.9902C457.031 64.7298 457.52 64.2741 457.52 63.623C457.52 63.2975 457.422 62.972 457.227 62.6465C455.599 63.0046 453.564 63.1836 451.123 63.1836C444.84 63.1836 439.909 62.2884 436.328 60.498C431.966 58.3496 429.785 55.1107 429.785 50.7812C429.785 49.0885 430.127 47.526 430.811 46.0938C431.494 44.6289 432.503 43.5384 433.838 42.8223C432.048 41.7155 430.518 40.0391 429.248 37.793C428.011 35.5469 427.393 32.7799 427.393 29.4922C427.393 23.2422 429.736 18.3105 434.424 14.6973C439.111 11.084 445.199 9.27734 452.686 9.27734C456.299 9.27734 459.782 9.87956 463.135 11.084V7.66602C465.055 6.91732 467.594 6.54297 470.752 6.54297C473.942 6.54297 476.367 7.08008 478.027 8.1543C480.046 9.45638 481.055 11.7513 481.055 15.0391C481.055 16.862 480.859 18.3268 480.469 19.4336C480.111 20.5404 479.574 21.696 478.857 22.9004C479.704 25.0488 480.127 27.7181 480.127 30.9082C480.127 36.6699 478.076 41.1458 473.975 44.3359C469.906 47.4935 464.421 49.0723 457.52 49.0723Z" fill="#008314"/>
<path d="M423.047 40.1367C423.047 42.4805 423.307 44.3685 423.828 45.8008C424.349 47.2331 425.26 48.3561 426.562 49.1699C426.595 49.3327 426.611 49.6419 426.611 50.0977V50.9766C426.611 55.4688 425.309 58.9681 422.705 61.4746C420.133 63.9486 416.797 65.1855 412.695 65.1855C408.626 65.1855 405.322 64.0299 402.783 61.7188C399.821 59.082 398.34 55.0781 398.34 49.707C398.34 47.4284 398.438 45.4264 398.633 43.7012C398.861 41.9434 399.007 40.6901 399.072 39.9414C399.17 39.1927 399.268 38.4928 399.365 37.8418C399.463 37.1908 399.512 36.2305 399.512 34.9609C399.512 33.6914 399.333 32.7799 398.975 32.2266C398.649 31.6732 398.177 31.3965 397.559 31.3965C396.973 31.3965 396.452 31.5267 395.996 31.7871L396.631 39.7461C396.045 43.0339 395.752 46.5169 395.752 50.1953C395.752 53.8737 396.582 57.2266 398.242 60.2539C395.052 63.5417 390.576 65.1855 384.814 65.1855C381.527 65.1855 378.678 64.3229 376.27 62.5977C373.47 60.6445 372.07 58.0566 372.07 54.834V31.2012C370.15 28.4993 369.189 25.179 369.189 21.2402C369.189 17.2689 370.15 13.8346 372.07 10.9375H380.762C383.073 10.9375 385.042 11.8001 386.67 13.5254C385.238 14.86 384.521 15.9668 384.521 16.8457C384.521 17.8548 385.091 18.3594 386.23 18.3594C387.663 15.8854 389.844 13.8346 392.773 12.207C395.736 10.5794 399.089 9.76562 402.832 9.76562C408.464 9.76562 413.037 11.1491 416.553 13.916C420.98 17.3991 423.193 22.8027 423.193 30.127L423.047 40.1367Z" fill="#008314"/>
<path d="M340.43 43.0176C340.82 43.0176 341.243 42.8548 341.699 42.5293C341.374 41.4551 341.211 39.7786 341.211 37.5V13.3789C344.661 11.2956 348.812 10.2539 353.662 10.2539C356.396 10.2539 358.789 10.6283 360.84 11.377C362.923 12.0931 364.518 13.0534 365.625 14.2578V39.6973C365.625 44.5475 366.797 47.7051 369.141 49.1699C369.173 49.3327 369.189 49.6419 369.189 50.0977V50.9766C369.189 55.7292 367.936 59.3262 365.43 61.7676C363.151 64.0462 360.01 65.1855 356.006 65.1855C353.499 65.1855 351.221 64.6159 349.17 63.4766C347.152 62.3372 345.638 60.6771 344.629 58.4961C343.522 58.4961 342.969 59.0332 342.969 60.1074C342.969 60.8561 343.343 61.6048 344.092 62.3535C343.05 63.1999 341.797 63.8835 340.332 64.4043C338.867 64.9251 336.702 65.1855 333.838 65.1855C331.006 65.1855 328.239 64.5996 325.537 63.4277C322.184 61.9954 319.613 59.7982 317.822 56.8359C315.641 53.3203 314.551 48.8607 314.551 43.457V31.2012C312.891 28.304 312.061 25.1139 312.061 21.6309C312.061 19.8405 312.288 17.985 312.744 16.0645C313.2 14.1439 313.932 12.4349 314.941 10.9375H325.684C329.72 10.9375 332.878 11.8978 335.156 13.8184C337.467 15.7064 338.623 18.5872 338.623 22.4609V38.2812C338.623 41.4388 339.225 43.0176 340.43 43.0176Z" fill="#008314"/>
<path d="M282.812 37.1094V45.6543C283.04 45.8822 283.415 45.9961 283.936 45.9961C284.456 45.9961 284.831 45.8171 285.059 45.459C285.286 45.1009 285.4 44.4824 285.4 43.6035V36.6211C285.4 33.4961 285.27 31.429 285.01 30.4199C284.749 29.3783 284.261 28.8574 283.545 28.8574C283.089 28.8574 282.699 29.0202 282.373 29.3457C282.666 32.5684 282.812 35.1562 282.812 37.1094ZM264.551 58.7402C259.212 53.597 256.543 46.6309 256.543 37.8418C256.543 29.0202 259.049 22.0703 264.062 16.9922C269.108 11.8815 275.716 9.32617 283.887 9.32617C292.057 9.32617 298.665 11.9792 303.711 17.2852C308.724 22.5911 311.23 29.5085 311.23 38.0371C311.23 46.5332 308.805 53.2878 303.955 58.3008C299.137 63.3138 292.578 65.8203 284.277 65.8203C275.977 65.8203 269.401 63.4603 264.551 58.7402Z" fill="#008314"/>
<path d="M217.871 49.4629C218.783 49.4629 219.238 48.9583 219.238 47.9492C212.044 43.1641 206.543 37.2884 202.734 30.3223C198.958 23.3561 196.842 15.6738 196.387 7.27539C197.852 5.0944 200.033 3.41797 202.93 2.24609C205.859 1.07422 208.87 0.488281 211.963 0.488281C216.032 0.488281 219.531 1.28581 222.461 2.88086C224.284 7.79622 225.781 12.4837 226.953 16.9434C225.358 23.9746 224.561 27.4902 224.561 27.4902C224.43 27.9785 224.365 28.4342 224.365 28.8574C224.365 29.9642 224.951 30.5176 226.123 30.5176C226.514 29.2806 227.425 25.5371 228.857 19.2871C229.215 17.6921 229.688 15.4785 230.273 12.6465C230.892 9.7819 231.673 6.41276 232.617 2.53906C235.612 1.10677 239.03 0.390625 242.871 0.390625C247.526 0.390625 251.237 1.52995 254.004 3.80859C256.771 6.05469 258.154 9.3099 258.154 13.5742C258.154 19.8242 256.396 25.9115 252.881 31.8359C250.114 36.5234 246.452 40.9017 241.895 44.9707V61.084C239.193 62.7441 236.768 63.8346 234.619 64.3555C232.471 64.9089 230.208 65.1855 227.832 65.1855C223.34 65.1855 219.808 64.3392 217.236 62.6465C214.665 60.9538 213.379 58.431 213.379 55.0781V46.4844C213.965 47.0703 214.714 47.7214 215.625 48.4375C216.536 49.1211 217.285 49.4629 217.871 49.4629Z" fill="#008314"/>
<path d="M169.629 40.1367C169.629 42.4805 169.889 44.3685 170.41 45.8008C170.931 47.2331 171.842 48.3561 173.145 49.1699C173.177 49.3327 173.193 49.6419 173.193 50.0977V50.9766C173.193 55.4688 171.891 58.9681 169.287 61.4746C166.715 63.9486 163.379 65.1855 159.277 65.1855C155.208 65.1855 151.904 64.0299 149.365 61.7188C146.403 59.082 144.922 55.0781 144.922 49.707C144.922 47.4284 145.02 45.4264 145.215 43.7012C145.443 41.9434 145.589 40.6901 145.654 39.9414C145.752 39.1927 145.85 38.4928 145.947 37.8418C146.045 37.1908 146.094 36.2305 146.094 34.9609C146.094 33.6914 145.915 32.7799 145.557 32.2266C145.231 31.6732 144.759 31.3965 144.141 31.3965C143.555 31.3965 143.034 31.5267 142.578 31.7871L143.213 39.7461C142.627 43.0339 142.334 46.5169 142.334 50.1953C142.334 53.8737 143.164 57.2266 144.824 60.2539C141.634 63.5417 137.158 65.1855 131.396 65.1855C128.109 65.1855 125.26 64.3229 122.852 62.5977C120.052 60.6445 118.652 58.0566 118.652 54.834V31.2012C116.732 28.4993 115.771 25.179 115.771 21.2402C115.771 17.2689 116.732 13.8346 118.652 10.9375H127.344C129.655 10.9375 131.624 11.8001 133.252 13.5254C131.82 14.86 131.104 15.9668 131.104 16.8457C131.104 17.8548 131.673 18.3594 132.812 18.3594C134.245 15.8854 136.426 13.8346 139.355 12.207C142.318 10.5794 145.671 9.76562 149.414 9.76562C155.046 9.76562 159.619 11.1491 163.135 13.916C167.562 17.3991 169.775 22.8027 169.775 30.127L169.629 40.1367Z" fill="#008314"/>
<path d="M87.0117 43.0176C87.4023 43.0176 87.8255 42.8548 88.2812 42.5293C87.9557 41.4551 87.793 39.7786 87.793 37.5V13.3789C91.2435 11.2956 95.3939 10.2539 100.244 10.2539C102.979 10.2539 105.371 10.6283 107.422 11.377C109.505 12.0931 111.1 13.0534 112.207 14.2578V39.6973C112.207 44.5475 113.379 47.7051 115.723 49.1699C115.755 49.3327 115.771 49.6419 115.771 50.0977V50.9766C115.771 55.7292 114.518 59.3262 112.012 61.7676C109.733 64.0462 106.592 65.1855 102.588 65.1855C100.081 65.1855 97.8027 64.6159 95.752 63.4766C93.7337 62.3372 92.2201 60.6771 91.2109 58.4961C90.1042 58.4961 89.5508 59.0332 89.5508 60.1074C89.5508 60.8561 89.9251 61.6048 90.6738 62.3535C89.6322 63.1999 88.3789 63.8835 86.9141 64.4043C85.4492 64.9251 83.2845 65.1855 80.4199 65.1855C77.5879 65.1855 74.821 64.5996 72.1191 63.4277C68.7663 61.9954 66.1947 59.7982 64.4043 56.8359C62.2233 53.3203 61.1328 48.8607 61.1328 43.457V31.2012C59.4727 28.304 58.6426 25.1139 58.6426 21.6309C58.6426 19.8405 58.8704 17.985 59.3262 16.0645C59.7819 14.1439 60.5143 12.4349 61.5234 10.9375H72.2656C76.3021 10.9375 79.4596 11.8978 81.7383 13.8184C84.0495 15.7064 85.2051 18.5872 85.2051 22.4609V38.2812C85.2051 41.4388 85.8073 43.0176 87.0117 43.0176Z" fill="#008314"/>
<path d="M27.7344 46.5332C28.8086 46.3379 29.3457 45.8008 29.3457 44.9219C29.3457 44.0104 29.0527 43.0013 28.4668 41.8945C27.9134 40.7552 27.0833 39.681 25.9766 38.6719C23.0794 36.0677 19.1569 34.7656 14.209 34.7656C11.7676 34.7656 9.48893 35.1725 7.37305 35.9863C5.12695 34.847 3.33659 33.0404 2.00195 30.5664C0.667318 28.0924 0 25.4232 0 22.5586C0 15.0716 3.125 9.29362 9.375 5.22461C14.7461 1.74154 21.3704 0 29.248 0C35.1074 0 40.0391 0.634766 44.043 1.9043C48.0469 3.14128 51.3184 4.73633 53.8574 6.68945C54.6061 8.83789 54.9805 11.0677 54.9805 13.3789C54.9805 15.6901 54.6712 17.7897 54.0527 19.6777C53.4342 21.5658 52.5391 23.0794 51.3672 24.2188C50.2604 23.4049 48.2585 22.5749 45.3613 21.7285C42.4642 20.8822 39.8275 20.459 37.4512 20.459C35.0749 20.459 33.4798 20.6055 32.666 20.8984C31.8848 21.1914 31.4941 21.6471 31.4941 22.2656C31.4941 22.5586 31.543 22.8353 31.6406 23.0957C32.7799 22.8027 34.2448 22.6562 36.0352 22.6562C42.3828 22.6562 47.5586 24.1536 51.5625 27.1484C56.2826 30.7292 58.6426 36.1003 58.6426 43.2617C58.6426 49.5768 56.0872 54.8177 50.9766 58.9844C45.4427 63.444 38.0046 65.6738 28.6621 65.6738C23.5189 65.6738 19.0592 65.2832 15.2832 64.502C11.5072 63.7533 7.82878 62.4186 4.24805 60.498C1.80664 56.9499 0.585938 53.3529 0.585938 49.707C0.585938 46.0286 1.83919 42.985 4.3457 40.5762C6.85221 38.1673 9.92839 36.9629 13.5742 36.9629C17.2526 36.9629 20.2474 37.7116 22.5586 39.209C24.9023 40.7064 26.6276 43.1478 27.7344 46.5332Z" fill="#008314"/>
</svg>
