<svg width="484" height="220" viewBox="0 0 484 220" fill="none" xmlns="http://www.w3.org/2000/svg">
<path fill-rule="evenodd" clip-rule="evenodd" d="M419.344 198.348V189.803C419.344 187.85 419.197 185.262 418.904 182.039C419.23 181.714 419.62 181.551 420.076 181.551C420.792 181.551 421.281 182.072 421.541 183.113C421.801 184.122 421.932 186.189 421.932 189.314V196.297C421.932 197.176 421.818 197.794 421.59 198.152C421.362 198.51 420.988 198.689 420.467 198.689C419.946 198.689 419.572 198.576 419.344 198.348ZM420.344 197.686C420.381 197.688 420.422 197.689 420.467 197.689C420.615 197.689 420.684 197.664 420.707 197.653C420.713 197.65 420.718 197.647 420.723 197.643C420.73 197.638 420.737 197.63 420.746 197.615C420.81 197.516 420.932 197.15 420.932 196.297V189.314C420.932 186.167 420.796 184.229 420.573 183.363L420.571 183.356C420.463 182.923 420.333 182.714 420.25 182.625C420.196 182.567 420.159 182.551 420.076 182.551C420.033 182.551 419.993 182.554 419.955 182.56C420.213 185.516 420.344 187.934 420.344 189.803V197.686ZM393.074 190.535C393.074 199.324 395.743 206.29 401.082 211.434C405.932 216.154 412.508 218.514 420.809 218.514C429.109 218.514 435.669 216.007 440.486 210.994C445.337 205.981 447.762 199.227 447.762 190.73C447.762 182.202 445.255 175.285 440.242 169.979C435.197 164.673 428.589 162.02 420.418 162.02C412.247 162.02 405.639 164.575 400.594 169.686C395.581 174.764 393.074 181.714 393.074 190.535ZM441.205 211.689C436.163 216.935 429.323 219.514 420.809 219.514C412.311 219.514 405.464 217.092 400.386 212.152C394.817 206.786 392.074 199.54 392.074 190.535C392.074 181.516 394.643 174.29 399.882 168.983C405.142 163.655 412.02 161.02 420.418 161.02C428.827 161.02 435.71 163.761 440.967 169.289L440.969 169.292C446.187 174.814 448.762 181.992 448.762 190.73C448.762 199.426 446.273 206.451 441.205 211.689Z" fill="white"/>
<path fill-rule="evenodd" clip-rule="evenodd" d="M388.875 192.391V173.055C388.582 172.697 387.785 172.013 386.482 171.004C384.757 172.306 383.064 172.957 381.404 172.957C380.46 172.957 379.988 172.339 379.988 171.102C382.885 170.483 385.343 168.969 387.361 166.561C389.38 164.119 390.389 161.287 390.389 158.064C390.389 154.061 389.054 150.74 386.385 148.104C383.748 145.434 380.46 144.1 376.521 144.1C372.615 144.1 369.311 145.402 366.609 148.006C363.908 150.61 362.557 153.963 362.557 158.064C362.557 160.441 363.126 162.524 364.266 164.314C365.128 165.644 366.064 166.676 367.075 167.41C367.401 167.646 367.734 167.851 368.074 168.025C367.704 168.218 367.342 168.396 366.988 168.557C366.625 168.722 366.271 168.87 365.926 169.002C365.242 169.262 364.607 169.604 364.021 170.027V201.766C364.021 207.332 365.665 211.564 368.953 214.461C371.557 216.74 374.861 217.879 378.865 217.879C382.902 217.879 386.124 216.74 388.533 214.461C391.137 212.052 392.439 208.455 392.439 203.67V202.791C392.439 202.335 392.423 202.026 392.391 201.863C390.047 200.398 388.875 197.241 388.875 192.391ZM389.216 215.192C386.583 217.68 383.096 218.879 378.865 218.879C374.659 218.879 371.109 217.676 368.295 215.214L368.292 215.211C364.733 212.075 363.021 207.536 363.021 201.766V169.516L363.436 169.217C364.094 168.742 364.806 168.359 365.57 168.067C365.726 168.008 365.884 167.945 366.045 167.878C365.088 167.093 364.217 166.078 363.426 164.858L363.422 164.851C362.169 162.882 361.557 160.607 361.557 158.064C361.557 153.719 362.999 150.097 365.915 147.286C368.812 144.494 372.368 143.1 376.521 143.1C380.711 143.1 384.258 144.53 387.092 147.396C389.962 150.234 391.389 153.815 391.389 158.064C391.389 161.515 390.301 164.574 388.132 167.198L388.128 167.203C386.189 169.516 383.847 171.077 381.115 171.852C381.123 171.867 381.131 171.878 381.137 171.886C381.153 171.907 381.165 171.916 381.185 171.925C381.211 171.936 381.276 171.957 381.404 171.957C382.789 171.957 384.276 171.416 385.88 170.206L386.49 169.745L387.095 170.213C388.37 171.202 389.269 171.958 389.649 172.421L389.875 172.698V192.391C389.875 197.156 391.037 199.838 392.921 201.015L393.287 201.244L393.371 201.667C393.426 201.941 393.439 202.346 393.439 202.791V203.67C393.439 208.63 392.086 212.534 389.216 215.192Z" fill="white"/>
<path fill-rule="evenodd" clip-rule="evenodd" d="M358.016 192.391V158.064C358.016 154.712 356.925 152.107 354.744 150.252C352.596 148.364 349.308 147.42 344.881 147.42C340.486 147.42 336.58 148.462 333.162 150.545V201.277C333.162 207.072 334.676 211.401 337.703 214.266C340.242 216.674 343.676 217.879 348.006 217.879C352.335 217.879 355.672 216.674 358.016 214.266C360.392 211.857 361.58 208.325 361.58 203.67V202.791C361.58 202.335 361.564 202.026 361.531 201.863C359.188 200.398 358.016 197.241 358.016 192.391ZM358.729 214.966C356.147 217.618 352.522 218.879 348.006 218.879C343.485 218.879 339.782 217.616 337.016 214.992C333.721 211.874 332.162 207.236 332.162 201.277V149.983L332.642 149.691C336.232 147.503 340.321 146.42 344.881 146.42C349.42 146.42 352.99 147.383 355.398 149.496C357.838 151.574 359.016 154.477 359.016 158.064V192.391C359.016 197.156 360.178 199.838 362.061 201.015L362.427 201.244L362.512 201.667C362.567 201.941 362.58 202.346 362.58 202.791V203.67C362.58 208.486 361.349 212.309 358.729 214.966Z" fill="white"/>
<path fill-rule="evenodd" clip-rule="evenodd" d="M301.961 198.348V189.803C301.961 187.85 301.814 185.262 301.521 182.039C301.847 181.714 302.238 181.551 302.693 181.551C303.41 181.551 303.898 182.072 304.158 183.113C304.419 184.122 304.549 186.189 304.549 189.314V196.297C304.549 197.176 304.435 197.794 304.207 198.152C303.979 198.51 303.605 198.689 303.084 198.689C302.563 198.689 302.189 198.576 301.961 198.348ZM302.961 197.686C302.998 197.688 303.039 197.689 303.084 197.689C303.232 197.689 303.301 197.664 303.324 197.653C303.338 197.646 303.348 197.64 303.363 197.615C303.427 197.516 303.549 197.15 303.549 196.297V189.314C303.549 186.167 303.413 184.229 303.19 183.363L303.188 183.356C303.08 182.923 302.951 182.714 302.867 182.625C302.813 182.567 302.776 182.551 302.693 182.551C302.65 182.551 302.61 182.554 302.572 182.56C302.83 185.516 302.961 187.934 302.961 189.803V197.686ZM275.691 190.535C275.691 199.324 278.361 206.29 283.699 211.434C288.549 216.154 295.125 218.514 303.426 218.514C311.727 218.514 318.286 216.007 323.104 210.994C327.954 205.981 330.379 199.227 330.379 190.73C330.379 182.202 327.872 175.285 322.859 169.979C317.814 164.673 311.206 162.02 303.035 162.02C294.865 162.02 288.257 164.575 283.211 169.686C278.198 174.764 275.691 181.714 275.691 190.535ZM323.822 211.689C318.78 216.935 311.94 219.514 303.426 219.514C294.928 219.514 288.081 217.092 283.004 212.152C277.435 206.786 274.691 199.54 274.691 190.535C274.691 181.516 277.26 174.29 282.499 168.983C287.759 163.655 294.637 161.02 303.035 161.02C311.445 161.02 318.327 163.761 323.584 169.289L323.586 169.292C328.804 174.814 331.379 181.992 331.379 190.73C331.379 199.426 328.891 206.451 323.822 211.689Z" fill="white"/>
<path fill-rule="evenodd" clip-rule="evenodd" d="M232.319 181.275C232.773 182.431 233.35 183.512 234.051 184.516L234.35 184.943H241.844C241.65 185.042 241.28 185.141 240.633 185.141H238.119V209.041C238.119 212.275 239.606 214.762 242.47 216.397C244.989 217.919 248.278 218.635 252.254 218.635C257.264 218.635 261.655 217.473 265.386 215.111L265.852 214.816V184.943H274.467L274.755 184.436C275.971 182.291 276.545 179.633 276.545 176.521C276.545 175.072 276.427 173.607 276.193 172.129C275.999 170.68 275.775 169.559 275.484 168.894L275.17 168.175L274.397 168.31C272.229 168.687 269.411 168.881 265.926 168.881C262.462 168.881 260.064 168.651 258.646 168.24C258.35 168.147 258.095 168.056 257.879 167.97C258.65 168.093 259.554 168.215 260.585 168.335L260.587 168.335C262.603 168.567 264.465 168.684 266.17 168.684C270.259 168.684 273.543 168.241 275.958 167.296L276.369 167.136L276.527 166.724C277.557 164.047 278.059 160.975 278.059 157.527V156.6C278.059 155.004 277.89 153.599 277.527 152.403L277.46 152.181L277.301 152.01C275.755 150.357 273.385 148.955 270.291 147.757C267.122 146.53 263.43 145.932 259.236 145.932C253.34 145.932 248.503 147.408 244.828 150.459C241.338 153.357 239.17 157.446 238.266 162.631H234.329L234.033 163.085C233.363 164.113 232.807 165.203 232.363 166.352C232.565 166.837 232.745 167.334 232.903 167.843C233.37 166.332 234.026 164.927 234.871 163.631H239.119C239.9 158.227 242.016 154.093 245.467 151.229C248.917 148.364 253.507 146.932 259.236 146.932C263.338 146.932 266.902 147.518 269.93 148.689C272.957 149.861 275.171 151.196 276.57 152.693C276.896 153.768 277.059 155.07 277.059 156.6V157.527C277.059 160.88 276.57 163.826 275.594 166.365C273.348 167.244 270.206 167.684 266.17 167.684C264.51 167.684 262.687 167.57 260.701 167.342C258.748 167.114 257.299 166.886 256.355 166.658C256.128 166.886 256.014 167.212 256.014 167.635C256.014 168.188 256.795 168.709 258.357 169.197C259.92 169.653 262.443 169.881 265.926 169.881C269.441 169.881 272.322 169.686 274.568 169.295C274.796 169.816 275.008 170.809 275.203 172.273C275.431 173.706 275.545 175.122 275.545 176.521C275.545 179.516 274.992 181.99 273.885 183.943H264.852V214.266C261.303 216.512 257.104 217.635 252.254 217.635C248.38 217.635 245.288 216.935 242.977 215.535C240.405 214.07 239.119 211.906 239.119 209.041V186.141H240.633C242.26 186.141 243.074 185.604 243.074 184.529C243.074 184.399 243.042 184.204 242.977 183.943H234.871C233.992 182.685 233.318 181.29 232.848 179.757C232.69 180.287 232.514 180.793 232.319 181.275Z" fill="white"/>
<path fill-rule="evenodd" clip-rule="evenodd" d="M158.26 215.535C160.571 216.935 163.663 217.635 167.537 217.635C172.387 217.635 176.587 216.512 180.135 214.266V189.754C178.637 189.461 177.563 189.201 176.912 188.973C176.294 188.712 175.984 188.338 175.984 187.85C175.984 187.361 176.115 186.987 176.375 186.727C177.091 186.954 178.23 187.215 179.793 187.508C181.388 187.768 183.162 187.898 185.115 187.898C189.021 187.898 192.374 187.28 195.174 186.043C195.597 184.383 195.809 182.43 195.809 180.184C196.167 179.923 196.525 179.793 196.883 179.793C197.794 179.793 198.25 180.509 198.25 181.941V200.252C198.25 206.046 199.829 210.441 202.986 213.436C206.176 216.398 210.441 217.879 215.779 217.879C221.15 217.879 225.236 216.691 228.035 214.314C230.867 211.906 232.283 208.455 232.283 203.963C232.283 202.14 231.941 199.992 231.258 197.518H229.158C225.675 197.518 223.934 195.434 223.934 191.268V183.895H230.916C231.728 182.735 232.372 181.356 232.848 179.757C233.007 180.276 233.189 180.779 233.395 181.267C232.949 182.453 232.398 183.522 231.735 184.468L231.437 184.895H224.934V191.268C224.934 193.236 225.349 194.526 226.007 195.314C226.637 196.067 227.623 196.518 229.158 196.518H232.019L232.222 197.251C232.92 199.78 233.283 202.022 233.283 203.963C233.283 208.681 231.785 212.438 228.683 215.076L228.682 215.077C225.635 217.664 221.281 218.879 215.779 218.879C210.248 218.879 205.721 217.339 202.306 214.168L202.298 214.161C198.882 210.921 197.25 206.226 197.25 200.252V181.941C197.25 181.299 197.142 180.989 197.065 180.867C197.035 180.82 197.018 180.814 197.017 180.813C197.013 180.811 196.978 180.793 196.883 180.793C196.859 180.793 196.833 180.795 196.803 180.8C196.768 182.854 196.551 184.687 196.143 186.29L196.023 186.761L195.578 186.958C192.621 188.264 189.124 188.898 185.115 188.898C183.119 188.898 181.29 188.765 179.632 188.495L179.62 188.493L179.609 188.491C178.637 188.308 177.81 188.136 177.137 187.972C177.174 187.993 177.219 188.016 177.273 188.04C177.856 188.24 178.86 188.486 180.327 188.773L181.135 188.931V214.816L180.67 215.111C176.938 217.473 172.547 218.635 167.537 218.635C163.561 218.635 160.272 217.919 157.753 216.397C154.89 214.762 153.402 212.275 153.402 209.041V184.208C151.465 181.358 150.521 177.915 150.521 173.934C150.521 169.795 151.525 166.162 153.569 163.078L153.865 162.631H161.873C165.939 162.631 169.056 163.955 170.955 166.785L171.388 167.429L170.871 168.008C170.142 168.825 169.478 169.886 168.891 171.213C168.269 172.62 168.049 173.452 168.049 173.836C168.049 174.144 168.103 174.304 168.149 174.384C169.394 170.152 171.593 166.926 174.793 164.802C177.627 162.879 181.087 161.947 185.115 161.947C188.05 161.947 190.741 162.528 193.169 163.708L193.179 163.712L193.188 163.717C194.424 164.35 195.8 165.315 197.312 166.589C198.769 163.37 200.203 159.906 201.612 156.196L201.614 156.19C202.006 155.178 202.382 154.231 202.741 153.348C203.098 152.441 203.371 151.732 203.564 151.219L203.747 150.731L204.251 150.602C206.761 149.957 209.647 149.643 212.898 149.643C216.192 149.643 219.453 149.992 222.68 150.691L223.469 150.861V162.631H231.455L231.751 163.081C232.431 164.112 232.993 165.202 233.441 166.35C233.24 166.835 233.061 167.333 232.903 167.843C232.435 166.335 231.773 164.931 230.916 163.631H222.469V151.668C219.311 150.984 216.121 150.643 212.898 150.643C209.708 150.643 206.909 150.952 204.5 151.57C204.305 152.091 204.028 152.807 203.67 153.719C203.312 154.598 202.938 155.542 202.547 156.551C201.092 160.381 199.61 163.954 198.101 167.27C197.955 167.59 197.81 167.906 197.664 168.221C197.398 167.982 197.136 167.753 196.88 167.534C195.317 166.198 193.935 165.223 192.732 164.607C190.454 163.501 187.915 162.947 185.115 162.947C181.242 162.947 177.986 163.842 175.35 165.633C172.16 167.749 169.995 171.069 168.855 175.594C168.27 175.594 167.814 175.447 167.488 175.154C167.195 174.861 167.049 174.422 167.049 173.836C167.049 173.217 167.358 172.208 167.977 170.809C168.595 169.409 169.311 168.253 170.125 167.342C168.465 164.868 165.714 163.631 161.873 163.631H154.402C152.482 166.528 151.521 169.962 151.521 173.934C151.521 177.872 152.482 181.193 154.402 183.895V209.041C154.402 211.906 155.688 214.07 158.26 215.535Z" fill="white"/>
<path fill-rule="evenodd" clip-rule="evenodd" d="M122.078 198.348V189.803C122.078 187.85 121.932 185.262 121.639 182.039C121.964 181.714 122.355 181.551 122.811 181.551C123.527 181.551 124.015 182.072 124.275 183.113C124.536 184.122 124.666 186.189 124.666 189.314V196.297C124.666 197.176 124.552 197.794 124.324 198.152C124.096 198.51 123.722 198.689 123.201 198.689C122.68 198.689 122.306 198.576 122.078 198.348ZM123.078 197.686C123.115 197.688 123.156 197.689 123.201 197.689C123.349 197.689 123.418 197.664 123.441 197.653C123.455 197.646 123.465 197.64 123.481 197.615C123.544 197.516 123.666 197.15 123.666 196.297V189.314C123.666 186.167 123.531 184.229 123.307 183.363L123.305 183.356C123.197 182.923 123.068 182.714 122.984 182.625C122.93 182.567 122.893 182.551 122.811 182.551C122.768 182.551 122.727 182.554 122.689 182.56C122.947 185.516 123.078 187.934 123.078 189.803V197.686ZM95.8086 190.535C95.8086 199.324 98.4779 206.29 103.816 211.434C108.667 216.154 115.242 218.514 123.543 218.514C131.844 218.514 138.403 216.007 143.221 210.994C148.071 205.981 150.496 199.227 150.496 190.73C150.496 182.202 147.99 175.285 142.977 169.979C137.931 164.673 131.323 162.02 123.152 162.02C114.982 162.02 108.374 164.575 103.328 169.686L102.617 168.983C107.876 163.655 114.754 161.02 123.152 161.02C131.562 161.02 138.444 163.761 143.701 169.289L143.703 169.292C148.921 174.814 151.496 181.992 151.496 190.73C151.496 199.426 149.008 206.451 143.94 211.689C138.898 216.934 132.058 219.514 123.543 219.514C115.045 219.514 108.198 217.092 103.121 212.152C97.5518 206.786 94.8086 199.54 94.8086 190.535C94.8086 181.516 97.3771 174.29 102.616 168.983L103.328 169.686C98.3151 174.764 95.8086 181.714 95.8086 190.535Z" fill="white"/>
<path fill-rule="evenodd" clip-rule="evenodd" d="M65.2422 184.383C64.6237 184.383 64.2493 184.334 64.1191 184.236V175.301C64.1191 174.91 64.1029 174.633 64.0703 174.471C64.2554 174.365 64.5695 174.302 65.0125 174.282C65.0256 174.282 65.0388 174.281 65.0521 174.281C65.1428 174.277 65.2387 174.275 65.3398 174.275C65.9909 174.275 66.4466 174.536 66.707 175.057C67 175.545 67.1465 176.375 67.1465 177.547V181.258C67.1465 182.365 66.9837 183.162 66.6582 183.65C66.3327 184.139 65.8607 184.383 65.2422 184.383ZM65.1191 175.279C65.1191 175.286 65.1191 175.293 65.1191 175.301V183.382C65.1582 183.383 65.1992 183.383 65.2422 183.383C65.5479 183.383 65.6977 183.288 65.8262 183.096C65.9816 182.863 66.1465 182.316 66.1465 181.258V177.547C66.1465 176.401 65.9931 175.81 65.8495 175.571L65.8298 175.538L65.8126 175.504C65.7607 175.4 65.7117 175.361 65.6738 175.339C65.6293 175.314 65.5327 175.275 65.3398 175.275C65.2605 175.275 65.187 175.277 65.1191 175.279ZM65.3398 213.777V206.307C58.5039 205.883 55.0859 204.842 55.0859 203.182C55.0859 203.13 55.0876 203.08 55.0909 203.031C55.0933 202.996 55.0965 202.961 55.1006 202.928C55.1413 202.591 55.2666 202.317 55.4766 202.107C56.2578 202.465 57.7715 202.889 60.0176 203.377C62.2962 203.833 64.4284 204.061 66.4141 204.061C75.138 204.061 81.9577 201.945 86.873 197.713C91.9837 193.253 94.5391 187.02 94.5391 179.012C94.5391 170.971 91.707 164.575 86.043 159.822C80.3789 155.07 72.778 152.693 63.2402 152.693C56.3392 152.693 50.2031 153.605 44.832 155.428C42.3255 156.274 40.3561 157.218 38.9238 158.26C37.5241 159.301 36.8242 160.343 36.8242 161.385V207.771C36.8242 211.157 38.2891 213.745 41.2188 215.535C43.7904 217.098 47.0944 217.879 51.1309 217.879C53.9629 217.879 56.681 217.505 59.2852 216.756C61.8893 215.975 63.9076 214.982 65.3398 213.777ZM44.5121 154.48C50.006 152.616 56.2534 151.693 63.2402 151.693C72.9436 151.693 80.7947 154.113 86.6857 159.056C92.5978 164.017 95.5391 170.705 95.5391 179.012C95.5391 187.251 92.8986 193.782 87.5305 198.466L87.5255 198.471C82.3742 202.906 75.2942 205.061 66.4141 205.061C64.3525 205.061 62.1541 204.824 59.8215 204.358L59.8133 204.356L59.8051 204.354C58.3577 204.039 57.1707 203.743 56.2711 203.463C56.2936 203.483 56.3187 203.504 56.3469 203.526C56.6336 203.753 57.1392 204.007 57.9409 204.251C59.5353 204.737 62.0044 205.098 65.4016 205.309L66.3398 205.367V214.243L65.9834 214.543C64.4107 215.865 62.253 216.91 59.5725 217.714L59.5615 217.717C56.8635 218.493 54.0521 218.879 51.1309 218.879C46.9719 218.879 43.4724 218.075 40.6995 216.39L40.6973 216.388C37.4755 214.42 35.8242 211.511 35.8242 207.771V161.385C35.8242 159.863 36.843 158.562 38.3268 157.458L38.3356 157.451C39.8795 156.328 41.9521 155.345 44.5121 154.48Z" fill="white"/>
<path fill-rule="evenodd" clip-rule="evenodd" d="M455.574 29.2324C456.453 29.2324 456.893 29.8184 456.893 30.9902V33.334C456.893 34.3756 456.795 35.0918 456.6 35.4824C456.404 35.873 456.046 36.0684 455.525 36.0684C455.005 36.0684 454.614 35.9544 454.354 35.7266V30.6973C454.354 29.7207 454.76 29.2324 455.574 29.2324ZM455.354 35.062C455.404 35.066 455.461 35.0684 455.525 35.0684C455.594 35.0684 455.64 35.0619 455.669 35.0555C455.676 35.054 455.681 35.0525 455.686 35.0511C455.691 35.0497 455.695 35.0484 455.698 35.0473L455.699 35.0469C455.701 35.0441 455.703 35.0402 455.705 35.0352C455.784 34.8772 455.893 34.379 455.893 33.334V30.9902C455.893 30.5005 455.796 30.3154 455.763 30.2719C455.754 30.2603 455.751 30.259 455.746 30.2565C455.734 30.2511 455.684 30.2324 455.574 30.2324C455.488 30.2324 455.441 30.243 455.421 30.2491C455.403 30.2836 455.354 30.4051 455.354 30.6973V35.062ZM453.377 50.3262C454.842 50.6191 456.616 50.7656 458.699 50.7656C465.6 50.7656 471.085 49.1869 475.154 46.0293C479.256 42.8392 481.307 38.3633 481.307 32.6016C481.307 29.4115 480.883 26.7422 480.037 24.5938C480.753 23.3893 481.29 22.2337 481.648 21.127C482.039 20.0202 482.234 18.5553 482.234 16.7324C482.234 13.4447 481.225 11.1497 479.207 9.84766C477.547 8.77344 475.122 8.23633 471.932 8.23633C468.774 8.23633 466.235 8.61068 464.314 9.35938V12.7773C463.982 12.6581 463.649 12.5447 463.314 12.4372C460.27 11.4595 457.121 10.9707 453.865 10.9707C446.378 10.9707 440.291 12.7773 435.604 16.3906C430.916 20.0039 428.572 24.9355 428.572 31.1855C428.572 34.4733 429.191 37.2402 430.428 39.4863C431.477 41.3421 432.703 42.809 434.108 43.887C434.403 44.1137 434.706 44.3233 435.018 44.5156C434.69 44.6912 434.383 44.8892 434.095 45.1097C433.208 45.7888 432.506 46.6813 431.99 47.7871C431.307 49.2194 430.965 50.7819 430.965 52.4746C430.965 56.804 433.146 60.043 437.508 62.1914C441.089 63.9818 446.02 64.877 452.303 64.877C454.744 64.877 456.779 64.6979 458.406 64.3398C458.602 64.6654 458.699 64.9909 458.699 65.3164C458.699 65.9674 458.211 66.4232 457.234 66.6836C456.29 66.944 454.142 67.0742 450.789 67.0742C447.436 67.0742 444.165 66.651 440.975 65.8047C437.817 64.9583 435.424 63.8516 433.797 62.4844C432.82 63.0378 431.958 64.0631 431.209 65.5605C430.46 67.0254 430.086 68.5553 430.086 70.1504C430.086 74.3171 432.12 77.7025 436.189 80.3066C440.584 83.1712 446.801 84.6035 454.842 84.6035C462.915 84.6035 469.507 82.9271 474.617 79.5742C479.728 76.2214 482.283 71.5339 482.283 65.5117C482.283 62.1263 481.486 59.1803 479.891 56.6738C477.938 53.6139 475.203 51.6283 471.688 50.7168C468.107 52.2142 463.777 52.9629 458.699 52.9629C457.104 52.9629 455.786 52.849 454.744 52.6211C453.813 52.3808 453.312 51.9466 453.24 51.3184C453.233 51.2657 453.23 51.2117 453.23 51.1562C453.23 51.1191 453.231 51.0816 453.233 51.0437C453.245 50.8165 453.293 50.5773 453.377 50.3262ZM454.649 51.5419C454.738 51.5778 454.846 51.614 454.977 51.6483C455.92 51.8526 457.155 51.9629 458.699 51.9629C463.684 51.9629 467.875 51.2274 471.302 49.7942L471.612 49.6643L471.938 49.7488C475.699 50.7236 478.644 52.8628 480.734 56.1358L480.734 56.137C482.445 58.8254 483.283 61.9633 483.283 65.5117C483.283 71.8769 480.553 76.876 475.166 80.4103C469.847 83.8994 463.048 85.6035 454.842 85.6035C446.706 85.6035 440.269 84.1581 435.647 81.147C431.347 78.3935 429.086 74.7161 429.086 70.1504C429.086 68.3937 429.499 66.7098 430.316 65.11C431.112 63.5187 432.09 62.3024 433.304 61.6143L433.908 61.2719L434.44 61.7187C435.912 62.9549 438.148 64.0118 441.233 64.8387C444.338 65.6621 447.522 66.0742 450.789 66.0742C452.455 66.0742 453.808 66.0418 454.855 65.9784C455.922 65.9137 456.605 65.8199 456.968 65.7196L456.977 65.7173C457.209 65.6553 457.372 65.5888 457.482 65.5296C455.993 65.7638 454.264 65.877 452.303 65.877C445.947 65.877 440.841 64.9748 437.065 63.088C437.065 63.0882 437.066 63.0883 437.066 63.0885M454.649 51.5419C455.858 51.6924 457.209 51.7656 458.699 51.7656C465.747 51.7656 471.472 50.1528 475.767 46.8193L475.768 46.8186C480.142 43.4167 482.307 38.6334 482.307 32.6016C482.307 29.545 481.929 26.8973 481.14 24.6862C481.766 23.5809 482.254 22.5011 482.596 21.4472C483.036 20.1933 483.234 18.6068 483.234 16.7324C483.234 13.2439 482.153 10.5586 479.75 9.00809C477.857 7.78305 475.207 7.23633 471.932 7.23633C468.709 7.23633 466.032 7.61643 463.951 8.42767L463.314 8.67591V11.3886C460.265 10.4432 457.114 9.9707 453.865 9.9707C446.217 9.9707 439.897 11.8182 434.993 15.5986C430.044 19.4132 427.572 24.6456 427.572 31.1855C427.572 34.5955 428.214 37.5389 429.552 39.9688L429.557 39.9784C430.602 41.8274 431.834 43.3417 433.263 44.4943C432.349 45.2503 431.622 46.2113 431.085 47.3621C430.335 48.9362 429.965 50.6452 429.965 52.4746C429.965 54.8158 430.558 56.9072 431.771 58.7094C432.98 60.5048 434.766 61.9555 437.065 63.088" fill="white"/>
<path fill-rule="evenodd" clip-rule="evenodd" d="M425.008 47.4941C424.487 46.0619 424.227 44.1738 424.227 41.8301L424.373 31.8203C424.373 24.4961 422.16 19.0924 417.732 15.6094C414.217 12.8424 409.643 11.459 404.012 11.459C400.268 11.459 396.915 12.2728 393.953 13.9004C391.023 15.528 388.842 17.5788 387.41 20.0527C386.271 20.0527 385.701 19.5482 385.701 18.5391C385.701 17.6927 386.365 16.6351 387.693 15.3662C387.744 15.3173 387.797 15.2682 387.85 15.2188C387.615 14.9703 387.374 14.7397 387.125 14.5271C385.648 13.2629 383.92 12.6309 381.941 12.6309H373.25C371.329 15.528 370.369 18.9622 370.369 22.9336C370.369 26.8724 371.329 30.1927 373.25 32.8945V56.5273C373.25 59.75 374.65 62.3379 377.449 64.291C379.858 66.0163 382.706 66.8789 385.994 66.8789C391.756 66.8789 396.232 65.235 399.422 61.9473C397.762 58.9199 396.932 55.5671 396.932 51.8887C396.932 48.2103 397.225 44.7272 397.811 41.4395L397.176 33.4805C397.632 33.2201 398.152 33.0898 398.738 33.0898C399.357 33.0898 399.829 33.3665 400.154 33.9199C400.512 34.4733 400.691 35.3848 400.691 36.6543C400.691 37.9238 400.643 38.8841 400.545 39.5352C400.447 40.1862 400.35 40.8861 400.252 41.6348C400.187 42.3835 400.04 43.6367 399.812 45.3945C399.617 47.1198 399.52 49.1217 399.52 51.4004C399.52 56.7715 401.001 60.7754 403.963 63.4121C406.502 65.7233 409.806 66.8789 413.875 66.8789C417.977 66.8789 421.313 65.6419 423.885 63.168C426.489 60.6615 427.791 57.1621 427.791 52.6699V51.791C427.791 51.3353 427.775 51.026 427.742 50.8633C426.44 50.0495 425.529 48.9264 425.008 47.4941ZM403.294 64.1555C400.053 61.2684 398.52 56.9487 398.52 51.4004C398.52 49.095 398.618 47.0541 398.819 45.282L398.82 45.274L398.821 45.266C399.049 43.5085 399.193 42.2738 399.256 41.5481L399.258 41.5267L399.26 41.5054C399.359 40.7513 399.457 40.045 399.556 39.3868C399.642 38.8112 399.691 37.9108 399.691 36.6543C399.691 35.4277 399.509 34.7633 399.315 34.4632L399.303 34.4453L399.292 34.4269C399.138 34.1647 398.986 34.0898 398.738 34.0898C398.554 34.0898 398.386 34.1069 398.231 34.1392L398.818 41.4882L398.795 41.6149C398.22 44.8393 397.932 48.2633 397.932 51.8887C397.932 55.4103 398.725 58.5961 400.299 61.4664L400.654 62.1138L400.14 62.6436C396.715 66.1728 391.952 67.8789 385.994 67.8789C382.524 67.8789 379.468 66.9653 376.872 65.1076C373.827 62.9809 372.25 60.0971 372.25 56.5273V33.2079C370.313 30.3578 369.369 26.9153 369.369 22.9336C369.369 18.7945 370.372 15.1618 372.417 12.0783L372.713 11.6309H381.941C384.536 11.6309 386.766 12.6129 388.577 14.5325L389.267 15.2644L388.531 15.9504C387.849 16.5859 387.375 17.1333 387.078 17.5931C386.776 18.0603 386.701 18.3661 386.701 18.5391C386.701 18.8484 386.781 18.9168 386.791 18.9252C386.803 18.9356 386.833 18.9581 386.892 18.9809C388.424 16.5835 390.63 14.6029 393.467 13.0262L393.472 13.024C396.597 11.3068 400.118 10.459 404.012 10.459C409.808 10.459 414.618 11.8853 418.351 14.8236C423.088 18.5503 425.373 24.2893 425.373 31.8203V31.8276L425.373 31.8349L425.227 41.8301C425.227 41.8322 425.227 41.8342 425.227 41.8363C425.227 44.1163 425.482 45.8733 425.948 47.1524C426.392 48.3732 427.158 49.3188 428.272 50.0153L428.638 50.244L428.723 50.6672C428.778 50.941 428.791 51.3456 428.791 51.791V52.6699C428.791 57.3637 427.424 61.1497 424.578 63.8885C421.792 66.5686 418.193 67.8789 413.875 67.8789C409.608 67.8789 406.05 66.6619 403.294 64.1555Z" fill="white"/>
<path fill-rule="evenodd" clip-rule="evenodd" d="M342.879 44.2227C342.423 44.5482 342 44.7109 341.609 44.7109C340.405 44.7109 339.803 43.1322 339.803 39.9746V24.1543C339.803 20.2806 338.647 17.3997 336.336 15.5117C334.057 13.5911 330.9 12.6309 326.863 12.6309H316.121C315.112 14.1283 314.38 15.8372 313.924 17.7578C313.468 19.6784 313.24 21.5339 313.24 23.3242C313.24 26.8073 314.07 29.9974 315.73 32.8945V45.1504C315.73 50.554 316.821 55.0137 319.002 58.5293C320.792 61.4915 323.364 63.6888 326.717 65.1211C329.419 66.293 332.186 66.8789 335.018 66.8789C337.882 66.8789 340.047 66.6185 341.512 66.0977C342.614 65.7058 343.596 65.2219 344.458 64.6458C344.742 64.4562 345.013 64.2565 345.271 64.0469C345.015 63.7902 344.802 63.5335 344.633 63.2768C344.31 62.7848 344.148 62.2928 344.148 61.8008C344.148 60.7266 344.702 60.1895 345.809 60.1895C346.818 62.3704 348.331 64.0306 350.35 65.1699C352.4 66.3092 354.679 66.8789 357.186 66.8789C361.189 66.8789 364.331 65.7396 366.609 63.4609C369.116 61.0195 370.369 57.4225 370.369 52.6699V51.791C370.369 51.3353 370.353 51.026 370.32 50.8633C367.977 49.3984 366.805 46.2409 366.805 41.3906V15.9512C365.698 14.7467 364.103 13.7865 362.02 13.0703C359.969 12.3216 357.576 11.9473 354.842 11.9473C349.992 11.9473 345.841 12.9889 342.391 15.0723V39.1934C342.391 41.472 342.553 43.1484 342.879 44.2227ZM362.353 12.1277C360.171 11.3324 357.661 10.9473 354.842 10.9473C349.847 10.9473 345.509 12.0212 341.874 14.2162L341.391 14.5079V39.1934C341.391 41.0246 341.493 42.5394 341.722 43.6977C341.676 43.7076 341.639 43.7109 341.609 43.7109C341.549 43.7109 341.52 43.6993 341.477 43.6619C341.414 43.6071 341.303 43.4711 341.189 43.1705C340.954 42.5548 340.803 41.5185 340.803 39.9746V24.1543C340.803 20.0802 339.58 16.8741 336.975 14.7425C334.461 12.6266 331.049 11.6309 326.863 11.6309H315.589L315.292 12.072C314.209 13.6781 313.432 15.5002 312.951 17.5269C312.479 19.5155 312.24 21.4486 312.24 23.3242C312.24 26.8807 313.068 30.1647 314.73 33.1571V45.1504C314.73 50.6818 315.846 55.3366 318.149 59.0513C320.053 62.2 322.791 64.531 326.323 66.0402C329.144 67.2632 332.045 67.8789 335.018 67.8789C337.917 67.8789 340.219 67.6187 341.847 67.0399C343.402 66.4868 344.759 65.7515 345.902 64.823L346.763 64.1238L345.979 63.3398C345.339 62.7001 345.148 62.1907 345.148 61.8008C345.148 61.4596 345.227 61.3463 345.254 61.3165C346.339 63.339 347.876 64.9217 349.858 66.0408L349.864 66.0441C352.073 67.2716 354.521 67.8789 357.186 67.8789C361.384 67.8789 364.802 66.6793 367.311 64.1737C370.069 61.4845 371.369 57.5905 371.369 52.6699V51.791C371.369 51.3456 371.356 50.941 371.301 50.6672L371.216 50.244L370.85 50.0153C368.967 48.838 367.805 46.1562 367.805 41.3906V15.5615L367.541 15.2745C366.291 13.9143 364.538 12.8797 362.353 12.1277Z" fill="white"/>
<path fill-rule="evenodd" clip-rule="evenodd" d="M283.992 47.3477V38.8027C283.992 36.8496 283.846 34.2617 283.553 31.0391C283.878 30.7135 284.269 30.5508 284.725 30.5508C285.441 30.5508 285.929 31.0716 286.189 32.1133C286.45 33.1224 286.58 35.1895 286.58 38.3145V45.2969C286.58 46.1758 286.466 46.7943 286.238 47.1523C286.01 47.5104 285.636 47.6895 285.115 47.6895C284.594 47.6895 284.22 47.5755 283.992 47.3477ZM284.992 46.6862C285.029 46.6883 285.07 46.6895 285.115 46.6895C285.263 46.6895 285.333 46.6639 285.355 46.653C285.369 46.6462 285.379 46.6404 285.395 46.6155C285.458 46.5156 285.58 46.1503 285.58 45.2969V38.3145C285.58 35.1674 285.445 33.2288 285.221 32.3632L285.219 32.3558C285.111 31.9234 284.982 31.7143 284.898 31.6254C284.844 31.5673 284.807 31.5508 284.725 31.5508C284.682 31.5508 284.641 31.5537 284.603 31.5598C284.861 34.5162 284.992 36.9335 284.992 38.8027V46.6862ZM257.723 39.5352C257.723 48.3242 260.392 55.2904 265.73 60.4336C270.581 65.1536 277.156 67.5137 285.457 67.5137C293.758 67.5137 300.317 65.0072 305.135 59.9941C309.985 54.9811 312.41 48.2266 312.41 39.7305C312.41 31.2018 309.904 24.2845 304.891 18.9785C299.845 13.6725 293.237 11.0195 285.066 11.0195C276.896 11.0195 270.288 13.5749 265.242 18.6855C260.229 23.7637 257.723 30.7135 257.723 39.5352ZM305.853 60.6895C300.811 65.9346 293.972 68.5137 285.457 68.5137C276.959 68.5137 270.112 66.0919 265.035 61.152C259.466 55.7857 256.723 48.5404 256.723 39.5352C256.723 30.5163 259.291 23.2904 264.531 17.983C269.79 12.6552 276.669 10.0195 285.066 10.0195C293.476 10.0195 300.358 12.7609 305.615 18.2894L305.618 18.2918C310.835 23.8143 313.41 30.9924 313.41 39.7305C313.41 48.4261 310.922 55.4509 305.853 60.6895Z" fill="white"/>
<path fill-rule="evenodd" clip-rule="evenodd" d="M215.559 49.1046C215.933 49.4304 216.349 49.7725 216.805 50.1309C217.716 50.8145 218.465 51.1562 219.051 51.1562C219.962 51.1562 220.418 50.6517 220.418 49.6426C213.224 44.8574 207.723 38.9818 203.914 32.0156C200.138 25.0495 198.022 17.3672 197.566 8.96875C199.031 6.78776 201.212 5.11133 204.109 3.93945C207.039 2.76758 210.05 2.18164 213.143 2.18164C217.212 2.18164 220.711 2.97917 223.641 4.57422C225.464 9.48958 226.961 14.1771 228.133 18.6367L225.74 29.1836C225.61 29.6719 225.545 30.1276 225.545 30.5508C225.545 31.6576 226.131 32.2109 227.303 32.2109C227.693 30.974 228.605 27.2305 230.037 20.9805C230.395 19.3854 230.867 17.1719 231.453 14.3398C232.072 11.4753 232.853 8.10612 233.797 4.23242C236.792 2.80013 240.21 2.08398 244.051 2.08398C248.706 2.08398 252.417 3.22331 255.184 5.50195C257.951 7.74805 259.334 11.0033 259.334 15.2676C259.334 21.5176 257.576 27.6048 254.061 33.5293C251.294 38.2168 247.632 42.5951 243.074 46.6641V62.7773C240.372 64.4375 237.947 65.528 235.799 66.0488C233.65 66.6022 231.388 66.8789 229.012 66.8789C224.52 66.8789 220.988 66.0326 218.416 64.3398C215.844 62.6471 214.559 60.1244 214.559 56.7715V48.1777C214.851 48.4705 215.185 48.7794 215.559 49.1046ZM236.042 67.0189C233.808 67.5936 231.464 67.8789 229.012 67.8789C224.409 67.8789 220.66 67.014 217.866 65.1751C214.985 63.2787 213.559 60.4253 213.559 56.7715V45.7635L215.266 47.4706C215.813 48.0179 216.526 48.6398 217.413 49.3373C218.285 49.9897 218.808 50.1562 219.051 50.1562C219.189 50.1562 219.267 50.1368 219.303 50.1235C219.314 50.1193 219.322 50.1156 219.326 50.1132C212.272 45.3123 206.834 39.4403 203.037 32.4953L203.035 32.4922C199.184 25.3879 197.031 17.56 196.568 9.02293L196.55 8.6889L196.736 8.41119C198.332 6.03496 200.688 4.24474 203.734 3.01242L203.738 3.01097C206.783 1.79284 209.92 1.18164 213.143 1.18164C217.342 1.18164 221.014 2.00526 224.119 3.69595L224.448 3.87514L224.578 4.2265C226.411 9.16849 227.919 13.8873 229.1 18.3826L229.162 18.6193L226.717 29.3969L226.717 29.399L226.716 29.4008L226.716 29.4022L226.716 29.4042L226.711 29.4231L226.707 29.4413C226.595 29.8612 226.545 30.2295 226.545 30.5508C226.545 30.7789 226.58 30.9098 226.614 30.9838C227.079 29.2553 227.893 25.8605 229.062 20.761C229.418 19.174 229.888 16.967 230.474 14.1372L230.476 14.1288C231.097 11.2532 231.88 7.87509 232.825 3.99566L232.938 3.5349L233.365 3.33029C236.515 1.82418 240.084 1.08398 244.051 1.08398C248.866 1.08398 252.824 2.26409 255.817 4.72803C258.862 7.20177 260.334 10.7692 260.334 15.2676C260.334 21.7152 258.518 27.9769 254.921 34.0396C252.164 38.7095 248.545 43.0654 244.074 47.1098V63.3366L243.598 63.6294C240.845 65.3208 238.324 66.4646 236.042 67.0189Z" fill="white"/>
<path fill-rule="evenodd" clip-rule="evenodd" d="M171.59 47.4941C171.069 46.0619 170.809 44.1738 170.809 41.8301L170.955 31.8203C170.955 24.4961 168.742 19.0924 164.314 15.6094C160.799 12.8424 156.225 11.459 150.594 11.459C146.85 11.459 143.497 12.2728 140.535 13.9004C137.605 15.528 135.424 17.5788 133.992 20.0527C132.853 20.0527 132.283 19.5482 132.283 18.5391C132.283 17.6927 132.947 16.6352 134.275 15.3663C134.326 15.3174 134.379 15.2682 134.432 15.2188C134.197 14.9703 133.956 14.7397 133.707 14.5271C132.23 13.2629 130.502 12.6309 128.523 12.6309H119.832C117.911 15.528 116.951 18.9622 116.951 22.9336C116.951 26.8724 117.911 30.1927 119.832 32.8945V56.5273C119.832 59.75 121.232 62.3379 124.031 64.291C126.44 66.0163 129.288 66.8789 132.576 66.8789C138.338 66.8789 142.814 65.235 146.004 61.9473C144.344 58.9199 143.514 55.5671 143.514 51.8887C143.514 48.2103 143.807 44.7272 144.393 41.4395L143.758 33.4805C144.214 33.2201 144.734 33.0898 145.32 33.0898C145.939 33.0898 146.411 33.3665 146.736 33.9199C147.094 34.4733 147.273 35.3848 147.273 36.6543C147.273 37.9238 147.225 38.8841 147.127 39.5352C147.029 40.1862 146.932 40.8861 146.834 41.6348C146.769 42.3835 146.622 43.6367 146.395 45.3945C146.199 47.1198 146.102 49.1217 146.102 51.4004C146.102 56.7715 147.583 60.7754 150.545 63.4121C153.084 65.7233 156.388 66.8789 160.457 66.8789C164.559 66.8789 167.895 65.6419 170.467 63.168C173.071 60.6615 174.373 57.1621 174.373 52.6699V51.791C174.373 51.3353 174.357 51.026 174.324 50.8633C173.022 50.0495 172.111 48.9264 171.59 47.4941ZM149.876 64.1554C146.635 61.2684 145.102 56.9487 145.102 51.4004C145.102 49.095 145.2 47.0541 145.401 45.282L145.402 45.274L145.403 45.266C145.631 43.5085 145.775 42.2738 145.838 41.5481L145.84 41.5267L145.842 41.5054C145.941 40.7513 146.039 40.045 146.138 39.3868C146.224 38.8112 146.273 37.9108 146.273 36.6543C146.273 35.4277 146.091 34.7633 145.897 34.4632L145.885 34.4453L145.874 34.4269C145.72 34.1647 145.568 34.0898 145.32 34.0898C145.136 34.0898 144.968 34.1069 144.814 34.1391L145.4 41.4882L145.377 41.6149C144.802 44.8393 144.514 48.2633 144.514 51.8887C144.514 55.4103 145.307 58.5961 146.881 61.4664L147.236 62.1138L146.722 62.6436C143.297 66.1728 138.535 67.8789 132.576 67.8789C129.106 67.8789 126.05 66.9654 123.454 65.1078C120.409 62.9811 118.832 60.0973 118.832 56.5273V33.2079C116.895 30.3578 115.951 26.9153 115.951 22.9336C115.951 18.7945 116.954 15.1618 118.999 12.0783L119.295 11.6309H128.523C131.118 11.6309 133.348 12.6129 135.159 14.5325L135.85 15.2644L135.113 15.9504C134.431 16.5859 133.957 17.1333 133.66 17.5931C133.358 18.0603 133.283 18.3661 133.283 18.5391C133.283 18.8484 133.363 18.9168 133.373 18.9252C133.385 18.9356 133.415 18.9581 133.474 18.9809C135.006 16.5835 137.212 14.6029 140.05 13.0262L140.054 13.024C143.179 11.3068 146.7 10.459 150.594 10.459C156.39 10.459 161.2 11.8853 164.933 14.8236C169.67 18.5504 171.955 24.2894 171.955 31.8203V31.8276L171.809 41.8301C171.809 41.8325 171.809 41.8349 171.809 41.8374C171.809 44.1169 172.065 45.8734 172.53 47.1524C172.974 48.3732 173.74 49.3188 174.854 50.0153L175.22 50.244L175.305 50.6672C175.36 50.941 175.373 51.3456 175.373 51.791V52.6699C175.373 57.3637 174.006 61.1497 171.16 63.8885C168.374 66.5686 164.775 67.8789 160.457 67.8789C156.19 67.8789 152.632 66.6619 149.876 64.1554Z" fill="white"/>
<path fill-rule="evenodd" clip-rule="evenodd" d="M89.4609 44.2227C89.0052 44.5482 88.582 44.7109 88.1914 44.7109C86.987 44.7109 86.3848 43.1322 86.3848 39.9746V24.1543C86.3848 20.2806 85.2292 17.3997 82.918 15.5117C80.6393 13.5911 77.4818 12.6309 73.4453 12.6309H62.7031C61.694 14.1283 60.9616 15.8372 60.5059 17.7578C60.0501 19.6784 59.8223 21.5339 59.8223 23.3242C59.8223 26.8073 60.6523 29.9974 62.3125 32.8945V45.1504C62.3125 50.554 63.403 55.0137 65.584 58.5293C67.3744 61.4915 69.946 63.6888 73.2988 65.1211C76.0006 66.293 78.7676 66.8789 81.5996 66.8789C84.4642 66.8789 86.6289 66.6185 88.0938 66.0977C89.1958 65.7058 90.178 65.2219 91.0405 64.6458C91.3245 64.4562 91.5955 64.2565 91.8535 64.0469C91.5968 63.7902 91.3841 63.5335 91.2155 63.2768C90.8921 62.7848 90.7305 62.2928 90.7305 61.8008C90.7305 60.7266 91.2839 60.1895 92.3906 60.1895C93.3997 62.3704 94.9134 64.0306 96.9316 65.1699C98.9824 66.3092 101.261 66.8789 103.768 66.8789C107.771 66.8789 110.913 65.7396 113.191 63.4609C115.698 61.0195 116.951 57.4225 116.951 52.6699V51.791C116.951 51.3353 116.935 51.026 116.902 50.8633C114.559 49.3984 113.387 46.2409 113.387 41.3906V15.9512C112.28 14.7467 110.685 13.7865 108.602 13.0703C106.551 12.3216 104.158 11.9473 101.424 11.9473C96.5736 11.9473 92.4232 12.9889 88.9727 15.0723V39.1934C88.9727 41.472 89.1354 43.1484 89.4609 44.2227ZM108.936 12.1277C106.753 11.3324 104.243 10.9473 101.424 10.9473C96.4286 10.9473 92.0913 12.0212 88.4558 14.2162L87.9727 14.5079V39.1934C87.9727 41.0246 88.0749 42.5394 88.3039 43.6977C88.258 43.7076 88.2207 43.7109 88.1914 43.7109C88.1312 43.7109 88.1018 43.6993 88.059 43.6619C87.9963 43.6071 87.8855 43.4711 87.7708 43.1705C87.5359 42.5548 87.3848 41.5185 87.3848 39.9746V24.1543C87.3848 20.0799 86.1618 16.8736 83.5565 14.7421C81.0429 12.6265 77.6305 11.6309 73.4453 11.6309H62.1712L61.8739 12.072C60.7915 13.6781 60.0138 15.5002 59.5329 17.5269C59.061 19.5155 58.8223 21.4486 58.8223 23.3242C58.8223 26.8807 59.6502 30.1647 61.3125 33.1571V45.1504C61.3125 50.6821 62.4283 55.337 64.7313 59.0518C66.6356 62.2001 69.3725 64.5309 72.9044 66.04C75.7256 67.2631 78.6264 67.8789 81.5996 67.8789C84.499 67.8789 86.8009 67.6187 88.4288 67.0399C89.9842 66.4868 91.3413 65.7515 92.4841 64.823L93.3447 64.1238L92.5606 63.3398C91.9209 62.7001 91.7305 62.1907 91.7305 61.8008C91.7305 61.4596 91.809 61.3463 91.8357 61.3165C92.9206 63.339 94.4577 64.9217 96.44 66.0408L96.446 66.0441C98.6555 67.2716 101.103 67.8789 103.768 67.8789C107.966 67.8789 111.385 66.6788 113.894 64.1724C116.652 61.4832 117.951 57.5897 117.951 52.6699V51.791C117.951 51.3456 117.938 50.941 117.883 50.6672L117.798 50.244L117.432 50.0153C115.549 48.838 114.387 46.1562 114.387 41.3906V15.5615L114.123 15.2745C112.873 13.9144 111.12 12.8797 108.936 12.1277Z" fill="white"/>
<path fill-rule="evenodd" clip-rule="evenodd" d="M28.7546 44.0404L28.747 44.0248C28.2585 43.0192 27.5136 42.0448 26.4851 41.1065C23.8173 38.7099 20.1571 37.459 15.3887 37.459C13.0605 37.459 10.9045 37.8466 8.91171 38.613L8.49681 38.7726L8.10036 38.5715C5.65172 37.3295 3.72123 35.3662 2.30154 32.7346C0.886658 30.1118 0.179688 27.279 0.179688 24.252C0.179688 16.4284 3.4743 10.3343 10.0091 6.07993L10.0106 6.07895C15.5775 2.46888 22.4017 0.693359 30.4277 0.693359C36.3506 0.693359 41.3901 1.33397 45.5212 2.64325C49.6041 3.90498 52.9901 5.54656 55.6468 7.59019L55.8833 7.77206L55.9814 8.05374C56.7676 10.3097 57.1602 12.6508 57.1602 15.0723C57.1602 17.4723 56.839 19.679 56.1827 21.6824C55.5246 23.6914 54.5542 25.3552 53.244 26.6291L52.6368 27.2194L51.9545 26.7178C51.0004 26.0163 49.1474 25.2251 46.2606 24.3818C43.4312 23.5552 40.8907 23.1523 38.6309 23.1523C36.3063 23.1523 34.8963 23.2982 34.2427 23.5127C35.1311 23.4023 36.1237 23.3496 37.2148 23.3496C43.7197 23.3496 49.1226 24.8856 53.3411 28.041L53.3466 28.0451C58.3688 31.8551 60.8223 37.5539 60.8223 44.9551C60.8223 51.5857 58.1199 57.1059 52.7881 61.4528L52.7837 61.4564C47.023 66.0989 39.3402 68.3672 29.8418 68.3672C24.6531 68.3672 20.1236 67.9735 16.2639 67.1753C12.387 66.4062 8.6168 65.0367 4.95507 63.0726L4.74137 62.958L4.60391 62.7583C2.06905 59.0743 0.765625 55.2832 0.765625 51.4004C0.765625 47.4676 2.11738 44.1578 4.83247 41.5485C7.53506 38.9512 10.8637 37.6562 14.7539 37.6562C18.5608 37.6562 21.7609 38.4305 24.2797 40.0616C26.6016 41.5461 28.3232 43.8422 29.4885 46.8588C29.5102 46.8036 29.5254 46.727 29.5254 46.6152C29.5254 45.9164 29.2994 45.0696 28.7627 44.0558L28.7546 44.0404ZM29.8557 47.8889C29.8183 47.9126 29.7793 47.9353 29.7387 47.957C29.5126 48.0779 29.2377 48.1677 28.9141 48.2266C27.8073 44.8411 26.082 42.3997 23.7383 40.9023C21.4271 39.4049 18.4323 38.6562 14.7539 38.6562C11.1081 38.6562 8.0319 39.8607 5.52539 42.2695C3.01888 44.6784 1.76562 47.722 1.76562 51.4004C1.76562 55.0462 2.98633 58.6432 5.42773 62.1914C9.00846 64.112 12.6868 65.4466 16.4629 66.1953C20.2389 66.9766 24.6986 67.3672 29.8418 67.3672C39.1842 67.3672 46.6224 65.1374 52.1562 60.6777C57.2669 56.5111 59.8223 51.2702 59.8223 44.9551C59.8223 37.7936 57.4622 32.4225 52.7422 28.8418C48.7383 25.847 43.5625 24.3496 37.2148 24.3496C35.4245 24.3496 33.9596 24.4961 32.8203 24.7891C32.7638 24.6383 32.7236 24.4821 32.6998 24.3204C32.6825 24.2028 32.6738 24.0823 32.6738 23.959C32.6738 23.902 32.6771 23.8465 32.6838 23.7923C32.7491 23.258 33.1364 22.8578 33.8457 22.5918C34.6595 22.2988 36.2546 22.1523 38.6309 22.1523C41.0072 22.1523 43.6439 22.5755 46.541 23.4219C49.4382 24.2682 51.4401 25.0983 52.5469 25.9121C53.7188 24.7728 54.6139 23.2591 55.2324 21.3711C55.8509 19.4831 56.1602 17.3835 56.1602 15.0723C56.1602 12.7611 55.7858 10.5312 55.0371 8.38281C52.498 6.42969 49.2266 4.83464 45.2227 3.59766C41.2188 2.32812 36.2871 1.69336 30.4277 1.69336C22.5501 1.69336 15.9258 3.43489 10.5547 6.91797C4.30469 10.987 1.17969 16.765 1.17969 24.252C1.17969 27.1165 1.84701 29.7858 3.18164 32.2598C4.51628 34.7337 6.30664 36.5404 8.55273 37.6797C10.6686 36.8659 12.9473 36.459 15.3887 36.459C20.3366 36.459 24.2591 37.7611 27.1562 40.3652C28.263 41.3744 29.0931 42.4486 29.6465 43.5879C30.2324 44.6947 30.5254 45.7038 30.5254 46.6152C30.5254 47.1818 30.3022 47.6064 29.8557 47.8889Z" fill="white"/>
</svg>
